<svg width="40" height="40" viewBox="0 0 40 40" fill="none" xmlns="http://www.w3.org/2000/svg">
<path d="M4.217 24.6168C3.862 26.9402 5.447 28.5518 7.387 29.3552C14.8253 32.4385 25.1753 32.4385 32.6137 29.3552C34.5537 28.5518 36.1387 26.9385 35.7837 24.6168C35.567 23.1885 34.4887 22.0002 33.6903 20.8385C32.6453 19.2985 32.542 17.6202 32.5403 15.8335C32.542 8.93016 26.9287 3.3335 20.0003 3.3335C13.072 3.3335 7.45867 8.93016 7.45867 15.8335C7.45867 17.6202 7.35533 19.3002 6.30867 20.8385C5.512 22.0002 4.43533 23.1885 4.217 24.6168Z" stroke="#FF785B" stroke-width="3" stroke-linecap="round" stroke-linejoin="round"/>
<path d="M13.334 31.667C14.0973 34.542 16.794 36.667 20.0007 36.667C23.209 36.667 25.9023 34.542 26.6673 31.667" stroke="#FF785B" stroke-width="3" stroke-linecap="round" stroke-linejoin="round"/>
</svg>
