<svg width="100" height="100" viewBox="0 0 100 100" fill="none" xmlns="http://www.w3.org/2000/svg">
<path d="M44.0083 66.2833L70.6583 39.6333L67.7083 36.6833L44.0083 60.3833L32.1333 48.5083L29.1833 51.4583L44.0083 66.2833ZM50.0125 87.5C44.8292 87.5 39.9542 86.5167 35.3875 84.55C30.8236 82.5806 26.8528 79.9083 23.475 76.5333C20.0972 73.1583 17.4236 69.1917 15.4542 64.6333C13.4847 60.075 12.5 55.2014 12.5 50.0125C12.5 44.8236 13.4847 39.9486 15.4542 35.3875C17.4208 30.8236 20.0889 26.8528 23.4583 23.475C26.8278 20.0972 30.7958 17.4236 35.3625 15.4542C39.9292 13.4847 44.8042 12.5 49.9875 12.5C55.1708 12.5 60.0458 13.4847 64.6125 15.4542C69.1764 17.4208 73.1472 20.0903 76.525 23.4625C79.9028 26.8347 82.5764 30.8028 84.5458 35.3667C86.5153 39.9306 87.5 44.8042 87.5 49.9875C87.5 55.1708 86.5167 60.0458 84.55 64.6125C82.5833 69.1792 79.9111 73.15 76.5333 76.525C73.1556 79.9 69.1889 82.5736 64.6333 84.5458C60.0778 86.5181 55.2042 87.5028 50.0125 87.5Z" fill="#FF6913"/>
</svg>
