<svg width="20" height="21" viewBox="0 0 20 21" fill="none" xmlns="http://www.w3.org/2000/svg">
<path d="M15.2348 3.29687L15.234 3.29688C15.2166 3.29689 15.198 3.29166 15.1804 3.27946C15.1626 3.2671 15.1459 3.24749 15.1353 3.221C15.1247 3.19438 15.1217 3.16406 15.1273 3.13464C15.1329 3.10528 15.1464 3.08081 15.1632 3.06337L15.1634 3.06317L15.7728 2.43036C15.7949 2.40735 15.8209 2.39809 15.8438 2.39809C15.8666 2.39809 15.8926 2.40735 15.9147 2.43036C15.9375 2.45401 15.9535 2.48997 15.9535 2.53125C15.9535 2.57253 15.9375 2.60849 15.9147 2.63214L15.3055 3.26476C15.3055 3.26476 15.3055 3.26477 15.3055 3.26477C15.2945 3.27624 15.2824 3.2843 15.2704 3.28942C15.2585 3.29453 15.2465 3.29688 15.2348 3.29687ZM3.04688 13.1562H3.54688V12.6562V10.125C3.54685 9.26979 3.70985 8.42347 4.02604 7.63496C4.34221 6.84648 4.80507 6.132 5.38703 5.53222C5.96895 4.93249 6.65838 4.45935 7.41506 4.1391C8.1717 3.81888 8.9812 3.6576 9.79708 3.66405L9.79715 3.66405C13.1675 3.69022 15.9531 6.60245 15.9531 10.2041V12.6562V13.1562H16.4531C16.6375 13.1562 16.8184 13.2321 16.9548 13.3738C17.0917 13.516 17.1719 13.7129 17.1719 13.9219V15.8203C17.1719 16.0293 17.0917 16.2262 16.9548 16.3684C16.8184 16.51 16.6375 16.5859 16.4531 16.5859H3.04688C2.86247 16.5859 2.68162 16.51 2.54525 16.3684C2.40826 16.2262 2.32812 16.0293 2.32812 15.8203V13.9219C2.32812 13.7129 2.40826 13.516 2.54525 13.3738C2.68162 13.2321 2.86247 13.1562 3.04688 13.1562ZM16.4531 16.3203H16.9531V15.8203V13.9219V13.4219H16.4531H3.04688H2.54688V13.9219V15.8203V16.3203H3.04688H16.4531ZM9.64062 1.26562V0.632812C9.64062 0.591628 9.65656 0.555752 9.67927 0.532167C9.70136 0.509225 9.72721 0.5 9.75 0.5C9.77279 0.5 9.79864 0.509226 9.82073 0.532167C9.84344 0.55575 9.85938 0.591626 9.85938 0.632812V1.26562C9.85938 1.30681 9.84344 1.34269 9.82073 1.36627C9.79864 1.38921 9.77279 1.39844 9.75 1.39844C9.72721 1.39844 9.70136 1.38921 9.67927 1.36627C9.65656 1.34269 9.64062 1.30681 9.64062 1.26562ZM4.26562 3.29723C4.24275 3.29723 4.21681 3.28796 4.19465 3.26496L3.58528 2.63214C3.5625 2.60849 3.54654 2.57253 3.54654 2.53125C3.54654 2.48997 3.5625 2.45401 3.58528 2.43036C3.60743 2.40735 3.63337 2.39809 3.65625 2.39809C3.67913 2.39809 3.70507 2.40735 3.72722 2.43036L4.3366 3.06317C4.35937 3.08682 4.37534 3.12278 4.37534 3.16406C4.37534 3.20534 4.35937 3.24131 4.3366 3.26496C4.31444 3.28796 4.2885 3.29723 4.26562 3.29723ZM10.1749 7.44515C11.3606 7.65309 12.2969 8.79061 12.2969 10.125C12.2969 10.4195 12.4093 10.7055 12.6152 10.9193C12.8217 11.1337 13.1058 11.2578 13.4062 11.2578C13.7067 11.2578 13.9908 11.1337 14.1973 10.9193C14.4032 10.7055 14.5156 10.4195 14.5156 10.125C14.5156 7.73467 12.8317 5.61054 10.548 5.21182C10.4019 5.18533 10.2523 5.18899 10.1077 5.22255C9.9625 5.25628 9.82619 5.31932 9.70648 5.40713C9.58682 5.49491 9.48631 5.60553 9.40992 5.73185C9.33355 5.85813 9.28255 5.99796 9.25915 6.14321C9.23575 6.28845 9.24027 6.43701 9.27254 6.58059C9.3048 6.72417 9.36435 6.86067 9.44853 6.98203C9.53274 7.10342 9.64015 7.20753 9.76532 7.2875C9.88968 7.36694 10.0288 7.42079 10.1749 7.44515Z" fill="#FF785B" stroke="#FF785B"/>
</svg>
