<svg width="24" height="24" viewBox="0 0 24 24" fill="none" xmlns="http://www.w3.org/2000/svg">
<path d="M2 12.5001C2 11.9697 2.21071 11.461 2.58579 11.0859C2.96086 10.7108 3.46957 10.5001 4 10.5001C4.79565 10.5001 5.55871 10.8162 6.12132 11.3788C6.68393 11.9414 7 12.7044 7 13.5001V17.5001C7 18.2957 6.68393 19.0588 6.12132 19.6214C5.55871 20.184 4.79565 20.5001 4 20.5001C3.46957 20.5001 2.96086 20.2894 2.58579 19.9143C2.21071 19.5392 2 19.0305 2 18.5001V12.5001ZM15.479 7.80609L15.212 8.66609C14.994 9.37109 14.885 9.72309 14.969 10.0021C15.0397 10.2285 15.1886 10.4223 15.389 10.5491C15.64 10.7071 16.019 10.7071 16.779 10.7071H17.183C19.753 10.7071 21.038 10.7071 21.645 11.4671C21.7143 11.5544 21.776 11.6468 21.83 11.7441C22.297 12.5921 21.766 13.7351 20.704 16.0211C19.73 18.1191 19.242 19.1681 18.338 19.7851C18.25 19.8451 18.16 19.9018 18.068 19.9551C17.116 20.5001 15.936 20.5001 13.576 20.5001H13.065C10.205 20.5001 8.776 20.5001 7.888 19.6401C7 18.7791 7 17.3941 7 14.6241V13.6501C7 12.1951 7 11.4671 7.258 10.8001C7.517 10.1341 8.011 9.58709 9.001 8.49109L13.092 3.96109C13.195 3.84709 13.246 3.79109 13.292 3.75109C13.4965 3.57475 13.762 3.48553 14.0316 3.50254C14.3011 3.51955 14.5532 3.64144 14.734 3.84209C14.774 3.88709 14.817 3.95009 14.904 4.07609C15.039 4.27209 15.106 4.37009 15.165 4.46809C15.693 5.33909 15.852 6.37409 15.611 7.35809C15.584 7.46709 15.549 7.58009 15.479 7.80609Z" fill="black" stroke="white" stroke-width="2" stroke-linecap="round" stroke-linejoin="round"/>
</svg>
