<svg width="20" height="20" viewBox="0 0 20 20" fill="none" xmlns="http://www.w3.org/2000/svg">
<path d="M7.23656 11.1182C7.40513 10.7817 7.5 10.402 7.5 10C7.5 9.598 7.40513 9.21825 7.23656 8.88175V11.1182ZM7.23656 11.1182C6.82612 11.9376 5.97874 12.5 5 12.5C3.61929 12.5 2.5 11.3807 2.5 10C2.5 8.61925 3.61929 7.5 5 7.5C5.97874 7.5 6.82612 8.06243 7.23656 8.88175V11.1182ZM7.23656 11.1182L12.7634 13.8818L7.23656 11.1182ZM7.23656 8.88175L12.7634 6.11827L7.23656 8.88175ZM12.7634 6.11827C13.1739 6.93757 14.0212 7.5 15 7.5C16.3807 7.5 17.5 6.38071 17.5 5C17.5 3.61929 16.3807 2.5 15 2.5C13.6192 2.5 12.5 3.61929 12.5 5C12.5 5.40197 12.5948 5.78179 12.7634 6.11827ZM12.7634 13.8818C12.5948 14.2183 12.5 14.598 12.5 15C12.5 16.3807 13.6192 17.5 15 17.5C16.3807 17.5 17.5 16.3807 17.5 15C17.5 13.6192 16.3807 12.5 15 12.5C14.0212 12.5 13.1739 13.0624 12.7634 13.8818Z" fill="#FF785B" stroke="white" stroke-linecap="round" stroke-linejoin="round"/>
</svg>
