<svg width="21" height="21" viewBox="0 0 21 21" fill="none" xmlns="http://www.w3.org/2000/svg">
<path d="M9.60938 1.28125V0.640625C9.60938 0.470721 9.67687 0.307775 9.79701 0.187635C9.91715 0.0674942 10.0801 0 10.25 0C10.4199 0 10.5829 0.0674942 10.703 0.187635C10.8231 0.307775 10.8906 0.470721 10.8906 0.640625V1.28125C10.8906 1.45115 10.8231 1.6141 10.703 1.73424C10.5829 1.85438 10.4199 1.92187 10.25 1.92188C10.0801 1.92187 9.91715 1.85438 9.79701 1.73424C9.67687 1.6141 9.60938 1.45115 9.60938 1.28125ZM16.0156 3.84375C16.0998 3.84382 16.1831 3.8273 16.2609 3.79515C16.3387 3.763 16.4093 3.71584 16.4689 3.65637L17.1095 3.01574C17.2297 2.89553 17.2972 2.7325 17.2972 2.5625C17.2972 2.3925 17.2297 2.22947 17.1095 2.10926C16.9893 1.98905 16.8262 1.92152 16.6562 1.92152C16.4863 1.92152 16.3232 1.98905 16.203 2.10926L15.5624 2.74988C15.4727 2.83948 15.4116 2.95367 15.3868 3.07801C15.3621 3.20234 15.3748 3.33123 15.4233 3.44835C15.4718 3.56547 15.554 3.66556 15.6594 3.73595C15.7649 3.80633 15.8888 3.84385 16.0156 3.84375ZM4.03113 3.65637C4.15134 3.77657 4.31438 3.84411 4.48438 3.84411C4.65437 3.84411 4.81741 3.77657 4.93762 3.65637C5.05782 3.53616 5.12536 3.37312 5.12536 3.20312C5.12536 3.03313 5.05782 2.87009 4.93762 2.74988L4.29699 2.10926C4.17678 1.98905 4.01375 1.92152 3.84375 1.92152C3.67375 1.92152 3.51072 1.98905 3.39051 2.10926C3.2703 2.22947 3.20277 2.3925 3.20277 2.5625C3.20277 2.7325 3.2703 2.89553 3.39051 3.01574L4.03113 3.65637ZM18.5781 14.0938V16.0156C18.5781 16.3554 18.4431 16.6813 18.2029 16.9216C17.9626 17.1619 17.6367 17.2969 17.2969 17.2969H3.20312C2.86332 17.2969 2.53743 17.1619 2.29714 16.9216C2.05686 16.6813 1.92188 16.3554 1.92188 16.0156V14.0938C1.92188 13.7539 2.05686 13.4281 2.29714 13.1878C2.53743 12.9475 2.86332 12.8125 3.20312 12.8125V10.25C3.2031 9.32006 3.38713 8.39931 3.74462 7.54083C4.10211 6.68235 4.62598 5.90311 5.28604 5.24804C5.9461 4.59297 6.72928 4.07503 7.59045 3.72406C8.45162 3.37309 9.37374 3.19604 10.3037 3.20312C14.1594 3.23195 17.2969 6.42947 17.2969 10.3301V12.8125C17.6367 12.8125 17.9626 12.9475 18.2029 13.1878C18.4431 13.4281 18.5781 13.7539 18.5781 14.0938ZM10.7849 7.03807C12.3056 7.29352 13.4531 8.67406 13.4531 10.25C13.4531 10.4199 13.5206 10.5829 13.6408 10.703C13.7609 10.8231 13.9238 10.8906 14.0938 10.8906C14.2637 10.8906 14.4266 10.8231 14.5467 10.703C14.6669 10.5829 14.7344 10.4199 14.7344 10.25C14.7344 8.05586 13.1272 6.13158 10.9963 5.77443C10.913 5.7597 10.8276 5.76162 10.745 5.78008C10.6624 5.79855 10.5843 5.8332 10.5152 5.88202C10.446 5.93085 10.3873 5.99289 10.3423 6.06455C10.2973 6.13622 10.2669 6.21609 10.2529 6.29956C10.239 6.38303 10.2417 6.46844 10.2609 6.55085C10.2801 6.63327 10.3155 6.71105 10.365 6.77972C10.4144 6.84838 10.477 6.90657 10.5491 6.95091C10.6212 6.99525 10.7013 7.02488 10.7849 7.03807ZM17.2969 16.0156V14.0938H3.20312V16.0156H17.2969Z" fill="white"/>
</svg>
