<svg width="24" height="24" viewBox="0 0 24 24" fill="none" xmlns="http://www.w3.org/2000/svg">
<path d="M14.926 2.91081L8.274 6.10481C7.77193 6.34951 7.2009 6.41378 6.657 6.28681C6.42752 6.2299 6.19562 6.18319 5.962 6.14681C4.137 5.93981 3 7.38381 3 9.04481V9.95681C3 11.6168 4.137 13.0618 5.962 12.8528C6.19587 12.8182 6.42783 12.7719 6.657 12.7138C7.20101 12.5872 7.77205 12.6518 8.274 12.8968L14.926 16.0898C16.453 16.8228 17.217 17.1898 18.068 16.9038C18.92 16.6178 19.212 16.0048 19.796 14.7788C20.5885 13.1322 21.0001 11.3282 21.0001 9.50081C21.0001 7.67339 20.5885 5.86943 19.796 4.22281C19.212 2.99681 18.92 2.38281 18.068 2.09781C17.217 1.81181 16.453 2.17681 14.926 2.91081Z" stroke="black" stroke-width="1.5" stroke-linecap="round" stroke-linejoin="round"/>
<path d="M7.49986 12.5V6.5M11.4579 20.77L9.96686 22C6.60486 19.334 7.01586 18.063 7.01586 13H8.14986C8.60986 15.86 9.69486 17.216 11.1929 18.197C12.1149 18.801 12.3049 20.072 11.4579 20.77Z" stroke="black" stroke-width="1.5" stroke-linecap="round" stroke-linejoin="round"/>
</svg>
