<svg width="30" height="30" viewBox="0 0 30 30" fill="none" xmlns="http://www.w3.org/2000/svg">
<g clip-path="url(#clip0_149_2708)">
<path d="M22.017 19.394C23.8325 16.9165 24.6457 13.8449 24.2938 10.7936C23.9419 7.74236 22.4509 4.93648 20.119 2.93734C17.7872 0.938195 14.7865 -0.106776 11.7173 0.0114866C8.64806 0.129749 5.73668 1.40252 3.56558 3.57517C1.39449 5.74782 0.123802 8.66011 0.00773569 11.7294C-0.10833 14.7987 0.938787 17.7986 2.9396 20.1291C4.94041 22.4595 7.74735 23.9485 10.7989 24.2982C13.8504 24.6479 16.9214 23.8325 19.3976 22.0152H19.3957C19.452 22.0902 19.512 22.1615 19.5795 22.2308L26.7982 29.4496C27.1498 29.8014 27.6267 29.9992 28.1241 29.9993C28.6215 29.9995 29.0986 29.8021 29.4504 29.4505C29.8022 29.099 30 28.622 30.0001 28.1246C30.0003 27.6273 29.8029 27.1502 29.4513 26.7983L22.2326 19.5796C22.1655 19.5117 22.0935 19.4491 22.017 19.3921V19.394ZM22.5007 12.1865C22.5007 13.5407 22.234 14.8817 21.7157 16.1329C21.1975 17.3841 20.4378 18.5209 19.4802 19.4785C18.5226 20.4361 17.3858 21.1957 16.1346 21.714C14.8835 22.2322 13.5425 22.499 12.1882 22.499C10.8339 22.499 9.49295 22.2322 8.24178 21.714C6.99061 21.1957 5.85377 20.4361 4.89617 19.4785C3.93856 18.5209 3.17895 17.3841 2.6607 16.1329C2.14245 14.8817 1.87571 13.5407 1.87571 12.1865C1.87571 9.45142 2.9622 6.8284 4.89617 4.89443C6.83014 2.96046 9.45316 1.87397 12.1882 1.87397C14.9233 1.87397 17.5463 2.96046 19.4802 4.89443C21.4142 6.8284 22.5007 9.45142 22.5007 12.1865Z" fill="black"/>
</g>
<defs>
<clipPath id="clip0_149_2708">
<rect width="30" height="30" fill="white"/>
</clipPath>
</defs>
</svg>
