<svg width="24" height="24" viewBox="0 0 24 24" fill="none" xmlns="http://www.w3.org/2000/svg">
<path d="M15 11C15 8.239 13.101 6 10.759 6C9.126 6 7.5 7 7 8" stroke="black" stroke-width="1.5" stroke-linecap="round" stroke-linejoin="round"/>
<path d="M19 11C19 8.79 17.482 7 15.609 7C15.0381 7.00299 14.4799 7.16882 14 7.478M22 12C22 15.314 17.523 18 12 18C6.477 18 2 15.314 2 12" stroke="black" stroke-width="1.5" stroke-linecap="round" stroke-linejoin="round"/>
<path d="M8.89 11C8.5 9.275 7.13 8 5.5 8C3.567 8 2 9.79 2 12C2 13.657 6.477 15 12 15C17.523 15 22 13.657 22 12C22 11.005 20.45 9.022 18.531 9" stroke="black" stroke-width="1.5" stroke-linecap="round" stroke-linejoin="round"/>
</svg>
