<svg width="30" height="30" viewBox="0 0 30 30" fill="none" xmlns="http://www.w3.org/2000/svg">
<path fill-rule="evenodd" clip-rule="evenodd" d="M15.9375 23.7V27.5H14.0625V23.7C11.9165 23.4687 9.93177 22.4525 8.48967 20.8466C7.04757 19.2407 6.24991 17.1584 6.25 15V12.5H8.125V15C8.125 16.8234 8.84933 18.572 10.1386 19.8614C11.428 21.1507 13.1766 21.875 15 21.875C16.8234 21.875 18.572 21.1507 19.8614 19.8614C21.1507 18.572 21.875 16.8234 21.875 15V12.5H23.75V15C23.7501 17.1584 22.9524 19.2407 21.5103 20.8466C20.0682 22.4525 18.0835 23.4687 15.9375 23.7ZM10 7.5C10 6.17392 10.5268 4.90215 11.4645 3.96447C12.4021 3.02678 13.6739 2.5 15 2.5C16.3261 2.5 17.5979 3.02678 18.5355 3.96447C19.4732 4.90215 20 6.17392 20 7.5V15C20 16.3261 19.4732 17.5979 18.5355 18.5355C17.5979 19.4732 16.3261 20 15 20C13.6739 20 12.4021 19.4732 11.4645 18.5355C10.5268 17.5979 10 16.3261 10 15V7.5Z" fill="black"/>
</svg>
