<svg width="48" height="36" viewBox="0 0 48 36" fill="none" xmlns="http://www.w3.org/2000/svg">
<path d="M47.4755 16.7324L42.7505 12.7154C42.7062 12.6772 42.6717 12.6562 42.632 12.6269C42.6455 12.5827 42.6612 12.5489 42.6747 12.4979C43.0067 11.2879 43.3395 10.0782 43.673 8.8687C43.9737 7.77369 43.1225 6.4462 41.9952 6.52795C39.7497 6.69795 37.5042 6.86645 35.2587 7.03344L35.2355 6.99819L34.0692 4.74894L32.3735 1.47294C31.8927 0.545194 30.824 0.373445 29.9915 0.809195C27.9912 1.85769 25.9947 2.90694 23.9945 3.95544C21.9942 2.90694 19.9977 1.85769 17.9967 0.809195C17.1657 0.372695 16.0955 0.545944 15.6155 1.47294L13.9197 4.74894L12.7527 6.99819C12.7437 7.01319 12.7377 7.01994 12.7302 7.03344C10.4847 6.86594 8.23998 6.69744 5.99598 6.52795C4.86498 6.4462 4.01373 7.77295 4.31598 8.8687L4.98948 11.3212C5.18223 12.0202 5.24973 12.4342 5.27748 12.6802C3.68989 14.0317 2.10164 15.3825 0.512734 16.7324C-0.173516 17.3167 -0.173516 18.7642 0.512734 19.3492L5.23623 23.3662C5.28048 23.4044 5.31498 23.4247 5.35623 23.4539C5.34273 23.4982 5.32698 23.5319 5.31348 23.5814C4.98148 24.7919 4.64898 26.0014 4.31598 27.2099C4.02048 28.2847 4.86198 29.6677 5.99598 29.5514C8.23798 29.3219 10.482 29.0929 12.728 28.8644C12.7385 28.8779 12.743 28.8877 12.7535 28.9042L13.9205 31.2277C14.4852 32.3549 15.0507 33.4852 15.6162 34.6072C16.085 35.5409 17.174 35.7029 17.9975 35.2709C19.9985 34.2229 21.9977 33.1747 23.9952 32.1262C24.6582 32.4752 25.3215 32.8229 25.985 33.1694C27.3207 33.8714 28.6557 34.5697 29.9922 35.2717C30.824 35.7097 31.8935 35.5364 32.375 34.6079C32.9405 33.5179 33.5057 32.4267 34.0707 31.3342L35.237 29.0842C35.246 29.0722 35.2505 29.0639 35.2587 29.0519C37.5042 29.2189 39.7497 29.3867 41.9952 29.5552C43.1225 29.6392 43.9745 28.3102 43.673 27.2137L42.998 24.7642C42.8052 24.0652 42.7377 23.6519 42.71 23.4052C44.297 22.0537 45.8855 20.7029 47.4755 19.3529C48.161 18.7672 48.161 17.3189 47.4755 16.7347" fill="#FF1D1D"/>
</svg>
