<svg width="48" height="35" viewBox="0 0 48 35" fill="none" xmlns="http://www.w3.org/2000/svg">
<path d="M47.4774 16.1514L42.7524 12.1344C42.7082 12.0961 42.6737 12.0751 42.6339 12.0459C42.6474 12.0016 42.6632 11.9679 42.6767 11.9169C43.0087 10.7069 43.3414 9.49714 43.6749 8.28764C43.9757 7.19264 43.1244 5.86514 41.9972 5.94689C39.7517 6.11689 37.5062 6.28539 35.2607 6.45239L35.2374 6.41714L34.0712 4.16789L32.3754 0.89189C31.8947 -0.0358604 30.8259 -0.20761 29.9934 0.22814C27.9932 1.27664 25.9967 2.32589 23.9964 3.37439C21.9962 2.32589 19.9997 1.27664 17.9987 0.22814C17.1677 -0.20836 16.0974 -0.0351104 15.6174 0.89189L13.9217 4.16789L12.7547 6.41714C12.7457 6.43214 12.7397 6.43889 12.7322 6.45239C10.4867 6.28489 8.24194 6.11639 5.99794 5.94689C4.86694 5.86514 4.01569 7.19189 4.31794 8.28764L4.99144 10.7401C5.18419 11.4391 5.25169 11.8531 5.27944 12.0991C3.69184 13.4507 2.10359 14.8014 0.514688 16.1514C-0.171562 16.7356 -0.171562 18.1831 0.514688 18.7681L5.23819 22.7851C5.28244 22.8234 5.31694 22.8436 5.35819 22.8729C5.34469 22.9171 5.32894 22.9509 5.31544 23.0004C4.98344 24.2109 4.65094 25.4204 4.31794 26.6289C4.02244 27.7036 4.86394 29.0866 5.99794 28.9704C8.23994 28.7409 10.4839 28.5119 12.7299 28.2834C12.7404 28.2969 12.7449 28.3066 12.7554 28.3231L13.9224 30.6466C14.4872 31.7739 15.0527 32.9041 15.6182 34.0261C16.0869 34.9599 17.1759 35.1219 17.9994 34.6899C20.0004 33.6419 21.9997 32.5936 23.9972 31.5451C24.6602 31.8941 25.3234 32.2419 25.9869 32.5884C27.3227 33.2904 28.6577 33.9886 29.9942 34.6906C30.8259 35.1286 31.8954 34.9554 32.3769 34.0269C32.9424 32.9369 33.5077 31.8456 34.0727 30.7531L35.2389 28.5031C35.2479 28.4911 35.2524 28.4829 35.2607 28.4709C37.5062 28.6379 39.7517 28.8056 41.9972 28.9741C43.1244 29.0581 43.9764 27.7291 43.6749 26.6326L42.9999 24.1831C42.8072 23.4841 42.7397 23.0709 42.7119 22.8241C44.2989 21.4726 45.8874 20.1219 47.4774 18.7719C48.1629 18.1861 48.1629 16.7379 47.4774 16.1536" fill="#012140"/>
</svg>
