<svg width="24" height="24" viewBox="0 0 24 24" fill="white" xmlns="http://www.w3.org/2000/svg">
<path d="M19.192 9.44097L17.227 7.46997C15.81 6.04897 15.255 5.28497 14.489 5.55497C13.532 5.89197 13.847 8.01797 13.847 8.73497C12.361 8.73497 10.815 8.60397 9.35 8.87897C4.513 9.78697 3 13.715 3 18C4.37 17.03 5.737 15.997 7.382 15.548C9.436 14.986 11.73 15.254 13.847 15.254C13.847 15.972 13.533 18.098 14.489 18.435C15.357 18.741 15.81 17.941 17.227 16.52L19.192 14.548C20.397 13.338 21 12.733 21 11.995C21 11.255 20.397 10.651 19.192 9.44097Z" stroke="black" stroke-width="2" stroke-linecap="round" stroke-linejoin="round"/>
</svg>
