<svg width="21" height="21" viewBox="0 0 21 21" fill="none" xmlns="http://www.w3.org/2000/svg">
<path d="M10.1094 1.28125V0.640625C10.1094 0.470721 10.1769 0.307775 10.297 0.187635C10.4172 0.0674942 10.5801 0 10.75 0C10.9199 0 11.0829 0.0674942 11.203 0.187635C11.3231 0.307775 11.3906 0.470721 11.3906 0.640625V1.28125C11.3906 1.45115 11.3231 1.6141 11.203 1.73424C11.0829 1.85438 10.9199 1.92188 10.75 1.92188C10.5801 1.92188 10.4172 1.85438 10.297 1.73424C10.1769 1.6141 10.1094 1.45115 10.1094 1.28125ZM16.5156 3.84375C16.5998 3.84382 16.6831 3.8273 16.7609 3.79515C16.8387 3.763 16.9093 3.71584 16.9689 3.65637L17.6095 3.01574C17.7297 2.89553 17.7972 2.7325 17.7972 2.5625C17.7972 2.3925 17.7297 2.22947 17.6095 2.10926C17.4893 1.98905 17.3262 1.92152 17.1562 1.92152C16.9863 1.92152 16.8232 1.98905 16.703 2.10926L16.0624 2.74988C15.9727 2.83948 15.9116 2.95367 15.8868 3.07801C15.8621 3.20234 15.8748 3.33123 15.9233 3.44835C15.9718 3.56547 16.054 3.66556 16.1594 3.73595C16.2649 3.80633 16.3888 3.84385 16.5156 3.84375ZM4.53113 3.65637C4.65134 3.77657 4.81438 3.84411 4.98438 3.84411C5.15437 3.84411 5.31741 3.77657 5.43762 3.65637C5.55782 3.53616 5.62536 3.37312 5.62536 3.20312C5.62536 3.03313 5.55782 2.87009 5.43762 2.74988L4.79699 2.10926C4.67678 1.98905 4.51375 1.92152 4.34375 1.92152C4.17375 1.92152 4.01072 1.98905 3.89051 2.10926C3.7703 2.22947 3.70277 2.3925 3.70277 2.5625C3.70277 2.7325 3.7703 2.89553 3.89051 3.01574L4.53113 3.65637ZM11.4979 5.77443C11.4146 5.7597 11.3292 5.76162 11.2466 5.78008C11.164 5.79855 11.0859 5.8332 11.0168 5.88202C10.9476 5.93085 10.8889 5.99289 10.8439 6.06455C10.7989 6.13622 10.7685 6.21609 10.7545 6.29956C10.7406 6.38303 10.7433 6.46844 10.7625 6.55085C10.7817 6.63327 10.8171 6.71105 10.8666 6.77972C10.916 6.84838 10.9786 6.90657 11.0507 6.95091C11.1228 6.99525 11.2029 7.02488 11.2865 7.03807C12.8056 7.29352 13.9531 8.67406 13.9531 10.25C13.9531 10.4199 14.0206 10.5829 14.1408 10.703C14.2609 10.8231 14.4238 10.8906 14.5938 10.8906C14.7637 10.8906 14.9266 10.8231 15.0467 10.703C15.1669 10.5829 15.2344 10.4199 15.2344 10.25C15.2344 8.05586 13.6272 6.13158 11.4963 5.77443H11.4979ZM19.0781 14.0938V16.0156C19.0781 16.3554 18.9431 16.6813 18.7029 16.9216C18.4626 17.1619 18.1367 17.2969 17.7969 17.2969H3.70312C3.36332 17.2969 3.03743 17.1619 2.79714 16.9216C2.55686 16.6813 2.42188 16.3554 2.42188 16.0156V14.0938C2.42188 13.7539 2.55686 13.4281 2.79714 13.1878C3.03743 12.9475 3.36332 12.8125 3.70312 12.8125V10.25C3.7031 9.32006 3.88713 8.39931 4.24462 7.54083C4.60211 6.68235 5.12598 5.90311 5.78604 5.24804C6.4461 4.59297 7.22928 4.07503 8.09045 3.72406C8.95162 3.37309 9.87374 3.19604 10.8037 3.20312C14.6594 3.23195 17.7969 6.42947 17.7969 10.3301V12.8125C18.1367 12.8125 18.4626 12.9475 18.7029 13.1878C18.9431 13.4281 19.0781 13.7539 19.0781 14.0938ZM4.98438 12.8125H16.5156V10.3301C16.5156 7.12695 13.9491 4.5076 10.794 4.48438H10.75C9.22086 4.48438 7.75435 5.09182 6.67309 6.17309C5.59182 7.25435 4.98438 8.72086 4.98438 10.25V12.8125ZM17.7969 16.0156V14.0938H3.70312V16.0156H17.7969Z" fill="white"/>
</svg>
