<svg width="24" height="24" viewBox="0 0 24 24" fill="none" xmlns="http://www.w3.org/2000/svg">
<path d="M21 16.929V10C21 6.229 21 4.343 19.828 3.172C18.656 2.001 16.771 2 13 2H12C8.229 2 6.343 2 5.172 3.172C4.001 4.344 4 6.229 4 10V19.5" stroke="black" stroke-width="1.5" stroke-linecap="round" stroke-linejoin="round"/>
<path d="M21 17H6.5C5.83696 17 5.20107 17.2634 4.73223 17.7322C4.26339 18.2011 4 18.837 4 19.5C4 20.163 4.26339 20.7989 4.73223 21.2678C5.20107 21.7366 5.83696 22 6.5 22H21" stroke="black" stroke-width="1.5" stroke-linecap="round" stroke-linejoin="round"/>
<path d="M21 22C20.337 22 19.7011 21.7366 19.2322 21.2678C18.7634 20.7989 18.5 20.163 18.5 19.5C18.5 18.837 18.7634 18.2011 19.2322 17.7322C19.7011 17.2634 20.337 17 21 17M14.388 6.85C14.7159 6.62701 15.1035 6.50816 15.5 6.509C16.605 6.509 17.5 7.412 17.5 8.526C17.5 9.623 16.596 10.54 15.5 10.54V11.5C15.5 12.443 15.5 12.914 15.207 13.207C14.914 13.5 14.443 13.5 13.5 13.5H11.5C10.557 13.5 10.086 13.5 9.793 13.207C9.5 12.914 9.5 12.443 9.5 11.5V10.665C8.332 10.665 7.5 9.795 7.5 8.526C7.5 7.412 8.395 6.509 9.5 6.509C9.912 6.509 10.294 6.634 10.612 6.849C10.7474 6.45575 11.002 6.11449 11.3404 5.87271C11.6788 5.63092 12.0841 5.50064 12.5 5.5C13.372 5.5 14.114 6.063 14.388 6.85ZM14.388 6.85C14.4613 7.05933 14.4987 7.282 14.5 7.518" stroke="black" stroke-width="1.5" stroke-linecap="round" stroke-linejoin="round"/>
</svg>
