<svg width="15" height="15" viewBox="0 0 15 15" fill="none" xmlns="http://www.w3.org/2000/svg">
<circle cx="7.5" cy="7.5" r="7.5" fill="#D9D9D9"/>
<path d="M4.56791 5.976C4.55191 5.872 4.54391 5.716 4.54391 5.508C4.54391 4.684 4.80791 4.032 5.33591 3.552C5.87191 3.064 6.64391 2.82 7.65191 2.82C8.53191 2.82 9.19991 3.024 9.65591 3.432C10.1119 3.832 10.3399 4.392 10.3399 5.112C10.3399 5.984 9.99991 6.732 9.31991 7.356C9.03991 7.612 8.82791 7.82 8.68391 7.98C8.53991 8.14 8.42391 8.32 8.33591 8.52C8.24791 8.712 8.20391 8.936 8.20391 9.192V10.044H6.59591V9.132C6.59591 8.748 6.62791 8.436 6.69191 8.196C6.76391 7.948 6.87591 7.724 7.02791 7.524C7.17991 7.316 7.41591 7.064 7.73591 6.768C8.03991 6.488 8.26791 6.22 8.41991 5.964C8.57191 5.708 8.64791 5.432 8.64791 5.136C8.64791 4.488 8.28791 4.164 7.56791 4.164C7.15991 4.164 6.84791 4.272 6.63191 4.488C6.42391 4.696 6.31991 4.984 6.31991 5.352C6.31991 5.48 6.33191 5.616 6.35591 5.76L4.56791 5.976ZM6.57191 10.8H8.22791V12.36H6.57191V10.8Z" fill="white"/>
</svg>
